<svg data-name="Layer 1" xmlns="http://www.w3.org/2000/svg" width="680" height="248" viewBox="0 0 680 248">
  <defs>
    <clipPath id="a">
      <path d="M249.43 141.35a19 19 0 100 38 19 19 0 000-38zm-14.67-8.6a54.62 54.62 0 0021.65-5.54 4.35 4.35 0 002.46-4.06c-1.44-38.03-11.12-59.73-42.86-55.62-40.1 5.18-45.71 56.38-25.7 110.63a4.23 4.23 0 004.55 2.6c6.71-.9 15.87-2.96 23.32-6.07a4.3 4.3 0 002.27-5.74c-13.03-28.91-19.36-68.31-3.04-72.6 11.34-1.9 12.77 22.24 12.89 32.16a4.3 4.3 0 004.46 4.25zM124.26 11.34c-12.62.35-22.28 5.05-29.5 12.8a3.7 3.7 0 01-5.3.08c-8.07-8.1-19.42-12.88-35.07-12.88-61.21 1.69-49.6 105.63-28.84 164.22a3.75 3.75 0 003.19 2.47c7.38.71 19.93-1.58 26.74-8.19a3.71 3.71 0 00.93-3.8c-5.1-16.02-36.47-118.53.55-118.53 31.71 0 23.85 61.72 16.08 92.36a3.75 3.75 0 003.64 4.66h29.98c2.4 0 4.2-2.21 3.67-4.56-4.85-21.68-14.85-91.33 17.45-91.33 37.27 0 8.73 102.53 4.28 117.07a3.82 3.82 0 00.58 3.37c5.35 7.33 15.34 11 28.4 10.46a3.77 3.77 0 003.56-3.01c12.65-63.23 30.47-165.2-40.34-165.2zm384.31 1.1c-60.61.72-53.15 102.71-33.87 161.91a6.04 6.04 0 005.76 4.17c7.47.02 18.32-2 26.28-11.52a4.98 4.98 0 001.21-4.64c-3.54-17.42-32.9-113.14 3.55-112.57 36.28.57 6.03 97.75 1.03 115.89a5.96 5.96 0 001.29 5.56c5.94 6.63 16.87 9.4 25.09 9.85a6.02 6.02 0 006.25-4.72c13.62-63.14 33.52-162.83-36.59-163.93zM358.91 141.3a4.92 4.92 0 00-6.2-3.9c-8.71 2.48-21.95 5.63-33.22 5.54a4.87 4.87 0 01-4.63-3.55c-11.3-40.32-.38-81.8 13.38-117.79a4.9 4.9 0 00-3.23-6.45A255.4 255.4 0 00299.44 9a4.9 4.9 0 00-5.27 2.6c-25.12 50.44-24.3 121.05-8.9 164.48a4.9 4.9 0 003.72 3.16c25.16 4.82 58.9-4.89 72.25-9.1a4.93 4.93 0 003.2-6.22 174.41 174.41 0 01-5.53-22.63zM603.5 125.3c13.9-1.48 67.62-10.61 67.62-63.26 0-55.34-79.4-46.77-92.84-44.92a3.44 3.44 0 00-2.71 2.08c-4.63 11.09-27.18 72.48-.13 159.73.52 1.67 2.2 2.44 3.95 2.36 10.2-.5 21.06-4.61 28.2-11.6 1.03-1 1.56-2.4 1.12-3.76-6.01-18.6-7.75-31.24-8.25-36.93a3.41 3.41 0 013.04-3.7zM597.9 93.8c-1.63-28.51 6.3-46.23 6.3-46.23s34.65-3.4 34.65 19.77S600.1 93.3 597.9 93.79zM405.96 12.4c-61.37.42-48.65 106.66-29.02 165.6a2.92 2.92 0 002.54 1.98c6.48.57 19.68-1.12 27.59-7.88a2.96 2.96 0 00.95-3.04c-4.15-14.89-37.38-121.21-.24-120.44 37.13.77 8.28 100.9 4.15 115.18-.32 1.1.04 2.25.88 3.02 8.3 7.51 19.27 10.1 26.24 11.12a2.92 2.92 0 003.28-2.26c13.93-62.81 34.5-161.81-36.37-163.28z" fill="none" stroke-width="0"/>
    </clipPath>
  </defs>
  <g fill="#2b354a">
    <path d="M84.62 246.59a9.29 9.29 0 01-5.08-7.9 9.92 9.92 0 014.23-8.52c1.45-1 3.18-1.5 5.2-1.5a9 9 0 013.2.59c1.03.39 1.95.89 2.74 1.5.42.33.67.69.74 1.06v.22c0 .16-.06.37-.16.63-.3.4-.61.6-.96.62-.2.02-.41-.03-.65-.15-.23-.12-.53-.3-.9-.53-.45-.27-.81-.48-1.1-.62-.28-.15-.6-.27-.96-.36a7.55 7.55 0 00-2.36-.21c-1.18.05-2.24.39-3.18 1.01a6.6 6.6 0 00-2.22 2.46 7 7 0 00-.8 3.32 6.59 6.59 0 006.66 6.68 6.4 6.4 0 003.86-1.22c.36-.27.63-.45.81-.54.18-.13.38-.2.6-.2.45-.03.85.17 1.2.6.16.24.24.5.24.79 0 .27-.1.54-.33.82a7.5 7.5 0 01-2.86 1.83c-1.2.46-2.39.7-3.55.7-1.5 0-2.96-.36-4.37-1.08zM103.27 247.38a1.44 1.44 0 01-.34-1.02 1789.26 1789.26 0 01.1-16.41c.04-.44.19-.75.44-.94s.51-.29.76-.29c.6 0 1 .16 1.17.48.18.32.27.81.27 1.48l.03 6.41h7.26c0-3.47 0-5.69.02-6.63 0-1.14.45-1.7 1.34-1.7.6 0 .98.16 1.15.5.17.35.26.83.26 1.45v15.18c0 .66-.1 1.13-.3 1.42s-.6.43-1.22.43c-.38 0-.68-.14-.89-.43-.2-.3-.3-.68-.3-1.17l-.06-6.25-7.23-.03-.06 6.11c0 .62-.1 1.07-.3 1.35-.22.28-.6.42-1.14.42-.41 0-.73-.12-.96-.37zM126.79 246.97a5.34 5.34 0 01-2.2-2.3 7.47 7.47 0 01-.87-3.15l-.11-11c0-.58.15-1.04.46-1.37.3-.34.66-.5 1.06-.5.34 0 .63.11.86.35.22.23.34.57.36 1 .02.18.03.47.03.87v8.04c0 1.34.08 2.43.24 3.26.17.84.51 1.5 1.05 2.01.53.5 1.33.76 2.38.76 1.25 0 2.16-.37 2.73-1.11a5.4 5.4 0 00.93-3.12l.03-10.36c0-.54.14-.96.42-1.26.28-.3.61-.45 1-.45.32 0 .61.12.88.36.26.23.4.57.45 1l.02.9v9.23a12.01 12.01 0 01-.68 3.94 5.46 5.46 0 01-2.22 2.76c-1 .6-2.19.91-3.56.91a6.68 6.68 0 01-3.27-.77zM156.7 246.09c.11.27.17.5.17.7 0 .27-.08.5-.22.68-.15.18-.33.32-.54.4-.17.06-.33.09-.5.09-.27 0-.53-.09-.8-.26s-.48-.43-.66-.77l-3.1-7.2-3.83.03c0 3.24 0 5.28-.03 6.14 0 .4-.04.73-.13 1a1.1 1.1 0 01-.44.61c-.21.16-.46.23-.73.23-.45 0-.8-.12-1.06-.36s-.38-.59-.38-1.02l-.04-13.58-.01-1.9c0-.86.08-1.43.25-1.72.18-.29.56-.43 1.16-.43h4.75c4.57.09 6.85 1.9 6.85 5.43 0 1.36-.33 2.48-1 3.37a5.25 5.25 0 01-2.61 1.87l2.9 6.69zm-9.48-9.1h3.48a9.97 9.97 0 002.1-.28 2.4 2.4 0 001.3-.83c.32-.4.48-1 .48-1.78 0-.97-.34-1.64-1.04-2a6.62 6.62 0 00-2.76-.58h-3.56v5.46zM177.49 246.09c.1.27.16.5.16.7 0 .27-.07.5-.21.68-.15.18-.33.32-.55.4-.16.06-.32.09-.49.09-.27 0-.54-.09-.8-.26s-.48-.43-.66-.77l-3.1-7.2-3.83.03c0 3.24-.01 5.28-.03 6.14 0 .4-.04.73-.14 1a1.1 1.1 0 01-.43.61c-.22.16-.46.23-.73.23-.46 0-.81-.12-1.06-.36a1.35 1.35 0 01-.38-1.02 4726.53 4726.53 0 00-.06-15.49c0-.85.09-1.42.26-1.7.17-.3.56-.44 1.15-.44h4.76c4.56.09 6.85 1.9 6.85 5.43 0 1.36-.33 2.48-1 3.37a5.25 5.25 0 01-2.62 1.87l2.91 6.69zm-9.48-9.1h3.48a9.97 9.97 0 002.09-.28 2.4 2.4 0 001.3-.83c.33-.4.49-1 .49-1.78 0-.97-.35-1.64-1.05-2a6.62 6.62 0 00-2.75-.58H168v5.46zM189.42 246.45a9.71 9.71 0 01-3.47-3.48 9.16 9.16 0 01-1.29-4.74 9.6 9.6 0 014.77-8.15 8.95 8.95 0 014.69-1.25c1.67-.01 3.23.4 4.69 1.25a9.7 9.7 0 013.49 3.47 9.1 9.1 0 011.3 4.74c0 1.67-.42 3.22-1.28 4.67-.85 1.45-2 2.6-3.46 3.48a9.1 9.1 0 01-4.74 1.3 9.04 9.04 0 01-4.7-1.29zm8.07-2.43a6.96 6.96 0 002.42-2.45 6.45 6.45 0 00-.03-6.63 6.84 6.84 0 00-5.73-3.34 6.7 6.7 0 00-6.69 6.68c-.02 1.2.28 2.3.88 3.32a6.87 6.87 0 005.83 3.34c1.2 0 2.3-.3 3.32-.92zM212.4 246.34a5.56 5.56 0 01-2.28-4.17c0-.21.04-.4.11-.54a1.2 1.2 0 011.14-.68c.38 0 .69.09.91.26.23.17.41.46.56.88.43 1.1.96 1.86 1.59 2.27.62.4 1.54.61 2.76.61a6.1 6.1 0 002.97-.66c.8-.45 1.21-1.2 1.21-2.27 0-.96-.38-1.6-1.13-1.93a9.26 9.26 0 00-2.97-.63c-2.27-.1-4-.54-5.2-1.29-1.19-.75-1.79-2.03-1.79-3.84 0-1.14.32-2.13.95-2.98a6.1 6.1 0 012.57-1.94 9.1 9.1 0 013.55-.68c1.32 0 2.53.26 3.61.76 1.09.51 1.9 1.23 2.45 2.17.14.26.22.5.22.74 0 .2-.06.4-.17.62-.36.58-.8.87-1.33.87-.3 0-.6-.18-.87-.54a5.13 5.13 0 00-1.74-1.47 5.81 5.81 0 00-2.33-.38c-1.15 0-2.12.26-2.91.76-.8.51-1.2 1.22-1.2 2.12 0 .67.2 1.17.61 1.5.41.34.9.57 1.5.69.59.12 1.39.21 2.4.28 1.29.11 2.2.24 2.75.38 1.23.33 2.17.91 2.83 1.74.67.84 1 1.86 1 3.07 0 1.2-.3 2.22-.91 3.07s-1.44 1.5-2.49 1.95a9.16 9.16 0 01-3.59.66 7.84 7.84 0 01-4.8-1.4zM242.73 247.47a.98.98 0 01-.27-1.14l5.84-16.22c.14-.44.33-.77.54-1.02s.56-.37 1.04-.37c.32 0 .6.11.81.33.22.22.39.5.52.84l5.84 16.22c.07.17.1.37.1.6 0 .3-.07.53-.24.72-.16.2-.4.3-.73.31a1.9 1.9 0 01-1.2-.24c-.3-.2-.55-.56-.73-1.06l-1.36-3.64h-6.17l-1.36 3.61c-.2.47-.44.82-.73 1.06-.25.18-.59.27-1 .27s-.72-.09-.9-.27zm9.16-7.52l-2.07-5.25-2.01 5.25h4.07zM264.85 247.46c-.2-.21-.31-.57-.33-1.08-.04-.54-.06-1.83-.06-3.88l.03-10.05c0-1.12.02-1.92.07-2.38.05-.46.15-.78.31-.95.16-.17.44-.3.82-.37l.49-.05c.4 0 .7.1.9.28s.4.5.65.91l6.84 12.42.03-11.76c0-.6.11-1.05.34-1.36s.61-.46 1.15-.46c.4 0 .7.13.91.39.21.26.32.59.32.96l.02 15.84c0 1.22-.44 1.82-1.33 1.82-.63.04-1.11-.12-1.44-.49-.16-.18-.48-.67-.95-1.46-.47-.8-1.2-2.1-2.2-3.89-.94-1.7-2.32-4.15-4.13-7.34l-.03 11.41c0 1.2-.49 1.8-1.46 1.8-.44 0-.76-.1-.95-.31zM285.9 247.3c-.27-.26-.4-.63-.4-1.08v-14.7c0-.92.07-1.56.21-1.93.15-.36.46-.6.94-.72.48-.11 1.33-.17 2.54-.17l3.26.02a9.7 9.7 0 018.39 4.68 8.9 8.9 0 011.29 4.67 9.93 9.93 0 01-4.28 8.16 8.03 8.03 0 01-4.28 1.48h-6.5c-.5 0-.9-.13-1.17-.4zm7.4-2.38c1.1 0 2.12-.32 3.04-.94a6.96 6.96 0 002.1-9.18 6.78 6.78 0 00-5.84-3.28h-4.36l.03 13.45 5.02-.05zM320.72 247.3a1.51 1.51 0 01-.36-1.08c-.02-1.52-.03-5.85-.03-12.98v-1.34c0-.86.04-1.5.12-1.92.08-.42.26-.73.53-.93.27-.2.72-.3 1.33-.3l8.1-.03c.44 0 .78.08 1.03.22.44.24.66.63.66 1.17 0 .42-.13.75-.37 1a1.3 1.3 0 01-.97.36l-7.63.05v5.27l4.32.03c.33 0 .62.03.9.08.3.07.54.23.7.46.16.24.25.52.25.85 0 .52-.2.9-.57 1.14-.26.16-.58.24-.98.24h-4.62v6.25c0 .62-.11 1.08-.34 1.39s-.6.46-1.1.46c-.4 0-.72-.13-.97-.4zM351.47 246.09c.1.27.16.5.16.7 0 .27-.07.5-.21.68-.15.18-.33.32-.55.4-.16.06-.32.09-.49.09-.27 0-.54-.09-.8-.26a2 2 0 01-.66-.77l-3.1-7.2-3.83.03c0 3.24-.01 5.28-.03 6.14 0 .4-.05.73-.14 1a1.1 1.1 0 01-.43.61c-.22.16-.46.23-.73.23-.46 0-.81-.12-1.06-.36s-.39-.59-.39-1.02a4943.74 4943.74 0 00-.05-15.49c0-.85.09-1.42.26-1.7s.55-.44 1.15-.44h4.76c4.56.09 6.84 1.9 6.84 5.43 0 1.36-.33 2.48-.99 3.37a5.25 5.25 0 01-2.62 1.87l2.9 6.69zm-9.48-9.1h3.47a9.97 9.97 0 002.1-.28 2.4 2.4 0 001.3-.83c.33-.4.49-1 .49-1.78 0-.97-.35-1.64-1.05-2s-1.61-.54-2.76-.58h-3.56v5.46zM363.4 246.45a9.7 9.7 0 01-3.47-3.48 9.16 9.16 0 010-9.42c.86-1.46 2.02-2.62 3.48-3.47s3.02-1.26 4.69-1.25c1.67-.01 3.23.4 4.69 1.25a9.7 9.7 0 013.49 3.47 9.1 9.1 0 011.3 4.74c0 1.67-.42 3.22-1.28 4.67-.85 1.45-2 2.6-3.46 3.48a9.1 9.1 0 01-4.74 1.3 9.04 9.04 0 01-4.7-1.29zm8.07-2.43a6.96 6.96 0 002.42-2.45 6.45 6.45 0 00-.03-6.63 6.84 6.84 0 00-5.73-3.34 6.7 6.7 0 00-6.68 6.68c-.03 1.2.27 2.3.87 3.32a6.86 6.86 0 005.83 3.34c1.2 0 2.3-.3 3.32-.92zM383.74 247.3c-.34-.3-.5-.7-.5-1.19 0-.52.2-1.1.62-1.71l9.07-12.9-7.74.02c-.62 0-1.08-.1-1.39-.3-.3-.22-.46-.58-.46-1.1 0-.44.14-.78.41-1.01.27-.24.62-.36 1.03-.36h10c.58 0 1.01.15 1.3.42.27.29.41.65.41 1.1 0 .66-.26 1.36-.78 2.12l-8.83 12.53 5.56.03c1.04 0 1.8.01 2.29.05.49.03.9.14 1.22.32.33.19.49.5.49.93 0 .13-.01.23-.03.3-.09.74-.52 1.14-1.3 1.2h-9.92c-.63 0-1.12-.16-1.45-.46zM404.54 247.4c-.28-.23-.41-.62-.41-1.18l-.03-13.04-.03-1.9c0-.65.05-1.15.15-1.5.1-.34.3-.6.6-.77.3-.17.76-.27 1.4-.28h7.99c.54 0 .94.1 1.2.32.3.25.45.58.45.98 0 .1-.01.24-.05.46-.1.5-.43.82-.98.92-.29.06-.58.09-.87.09h-7.06v5.3c2.39 0 3.83 0 4.32.02.56 0 .99.08 1.29.25s.48.48.56.95c.07.49-.05.87-.36 1.15-.3.28-.75.42-1.33.42h-4.48v5.36h7.14c.6 0 1.05.09 1.34.27.28.18.47.5.54.95.05.5-.07.89-.38 1.15-.3.26-.74.4-1.28.4l-4.21.02h-4.21c-.6 0-1.04-.11-1.3-.34zM423.75 247.46c-.2-.21-.31-.57-.33-1.08-.04-.54-.05-1.83-.05-3.88l.02-10.05c0-1.12.02-1.92.07-2.38.05-.46.15-.78.31-.95.17-.17.44-.3.82-.37l.49-.05c.4 0 .7.1.9.28.2.2.41.5.64.91l6.85 12.42.03-11.76c0-.6.11-1.05.34-1.36s.61-.46 1.15-.46c.4 0 .7.13.91.39.21.26.32.59.32.96l.02 15.84c0 1.22-.44 1.82-1.33 1.82-.63.04-1.11-.12-1.44-.49-.16-.18-.48-.67-.95-1.46-.47-.8-1.2-2.1-2.2-3.89-.94-1.7-2.32-4.15-4.13-7.34l-.03 11.41c0 1.2-.49 1.8-1.46 1.8-.44 0-.76-.1-.96-.31zM459.98 247.39c-.2-.24-.3-.52-.33-.84-.03-.33-.04-.9-.04-1.72l-.05-13.23h-2.26c-.87 0-1.48-.02-1.84-.08-.37-.05-.63-.19-.78-.4-.15-.22-.23-.6-.23-1.14 0-.37.12-.66.37-.87.24-.22.55-.33.93-.33h10.11c.47 0 .87.1 1.2.3.32.2.49.48.49.84 0 .5-.08.88-.24 1.12s-.39.39-.7.47c-.32.08-.78.12-1.37.12l-2.2-.03h-.66v14.32c0 .6-.1 1.05-.32 1.36-.22.3-.6.46-1.12.46-.45 0-.77-.12-.96-.35zM486.65 246.09c.1.27.16.5.16.7 0 .27-.07.5-.21.68-.15.18-.33.32-.55.4-.16.06-.32.09-.49.09-.27 0-.54-.09-.8-.26a2 2 0 01-.66-.77l-3.1-7.2-3.83.03c0 3.24-.01 5.28-.03 6.14 0 .4-.05.73-.14 1a1.1 1.1 0 01-.43.61c-.22.16-.46.23-.73.23-.46 0-.81-.12-1.06-.36s-.39-.59-.39-1.02a4943.74 4943.74 0 00-.05-15.49c0-.85.09-1.42.26-1.7s.55-.44 1.15-.44h4.76c4.56.09 6.84 1.9 6.84 5.43 0 1.36-.33 2.48-.99 3.37a5.25 5.25 0 01-2.62 1.87l2.9 6.69zm-9.48-9.1h3.47a9.97 9.97 0 002.1-.28 2.4 2.4 0 001.3-.83c.33-.4.49-1 .49-1.78 0-.97-.35-1.64-1.05-2s-1.61-.54-2.76-.58h-3.56v5.46zM495.59 247.4c-.27-.23-.41-.62-.41-1.18l-.03-13.04-.02-1.9c0-.65.05-1.15.15-1.5.1-.34.3-.6.6-.77.3-.17.76-.27 1.4-.28h7.98c.54 0 .94.1 1.2.32.3.25.46.58.46.98 0 .1-.02.24-.06.46-.1.5-.43.82-.98.92-.29.06-.58.09-.87.09h-7.06v5.3c2.4 0 3.83 0 4.32.02.56 0 1 .08 1.3.25s.48.48.55.95c.07.49-.05.87-.36 1.15-.3.28-.75.42-1.33.42h-4.48v5.36h7.15c.6 0 1.04.09 1.33.27.29.18.47.5.54.95.06.5-.07.89-.38 1.15-.3.26-.73.4-1.28.4l-4.2.02h-4.22c-.6 0-1.03-.11-1.3-.34zM513.3 247.47a.98.98 0 01-.27-1.14l5.85-16.22c.14-.44.32-.77.54-1.02.22-.24.56-.37 1.03-.37.33 0 .6.11.82.33.21.22.39.5.51.84l5.84 16.22c.08.17.11.37.11.6 0 .3-.08.53-.24.72-.16.2-.4.3-.74.31-.49.04-.88-.04-1.2-.24s-.54-.56-.73-1.06l-1.35-3.64h-6.17l-1.36 3.61c-.2.47-.44.82-.73 1.06-.26.18-.6.27-1 .27s-.72-.09-.9-.27zm9.16-7.52l-2.06-5.25-2.02 5.25h4.08zM537.34 247.39c-.2-.24-.3-.52-.33-.84-.03-.33-.04-.9-.04-1.72l-.05-13.23h-2.26c-.87 0-1.49-.02-1.85-.08-.36-.05-.62-.19-.77-.4-.15-.22-.23-.6-.23-1.14 0-.37.12-.66.36-.87.25-.22.56-.33.94-.33h10.11c.47 0 .87.1 1.2.3.32.2.48.48.48.84 0 .5-.07.88-.23 1.12-.15.23-.39.39-.7.47-.32.08-.78.12-1.38.12l-2.2-.03h-.65v14.32c0 .6-.1 1.05-.33 1.36-.21.3-.58.46-1.1.46-.46 0-.78-.12-.97-.35zM552.88 246.34a5.55 5.55 0 01-2.27-4.17c0-.21.04-.4.11-.54a1.2 1.2 0 011.14-.68c.38 0 .68.09.91.26.23.17.41.46.56.88.43 1.1.96 1.86 1.59 2.27.62.4 1.54.61 2.76.61a6.1 6.1 0 002.97-.66c.8-.45 1.21-1.2 1.21-2.27 0-.96-.38-1.6-1.13-1.93a9.26 9.26 0 00-2.97-.63c-2.27-.1-4-.54-5.2-1.29-1.19-.75-1.79-2.03-1.79-3.84 0-1.14.32-2.13.95-2.98a6.1 6.1 0 012.57-1.94 9.1 9.1 0 013.55-.68c1.32 0 2.52.26 3.61.76 1.09.51 1.9 1.23 2.45 2.17.14.26.21.5.21.74 0 .2-.05.4-.16.62-.36.58-.8.87-1.33.87-.3 0-.6-.18-.87-.54-.6-.72-1.18-1.21-1.74-1.47s-1.34-.38-2.34-.38c-1.14 0-2.1.26-2.9.76-.8.51-1.2 1.22-1.2 2.12 0 .67.2 1.17.61 1.5.41.34.9.57 1.5.69.58.12 1.39.21 2.4.28 1.29.11 2.2.24 2.74.38 1.24.33 2.18.91 2.84 1.74.67.84 1 1.86 1 3.07a5.15 5.15 0 01-3.4 5.02 9.16 9.16 0 01-3.59.66 7.84 7.84 0 01-4.8-1.4z"/>
  </g>
  <path d="M680 62.05c0-35.2-28.35-55.4-77.78-55.4-11.35 0-20.64 1.05-25.17 1.67-4.3.6-8.02 3.45-9.7 7.47a157.03 157.03 0 00-7.03 21.93 59.81 59.81 0 00-8.47-14.78c-10-12.58-24.5-19.1-43.14-19.4h-.24c-16.93.2-30.96 7.4-40.58 20.81a69.95 69.95 0 00-8.55 16.5 62.38 62.38 0 00-9.5-17.5C439.8 10.56 425.1 3.9 406.14 3.5h-.24c-16.46.12-30.02 6.96-39.2 19.8-17.58 24.54-17 67-11.01 104.22-.8.09-1.6.21-2.37.44-4.6 1.31-19.57 5.38-30.7 6-9.73-38.89 2.25-78.66 13.92-109.18a13.81 13.81 0 00-9.03-18.16A263.19 263.19 0 00301.02.26a13.7 13.7 0 00-14.81 7.39c-13.87 27.86-20.08 60.8-20.7 92.25-4-22.32-14.57-41.65-42.9-41.65-2.4 0-4.96.15-7.73.46-12.16 1.55-22.37 6.62-30.04 14.81-1.23-21.14-6.11-39.2-16.66-52.06-10.35-12.62-25.12-19.02-43.92-19.02h-.24c-12.6.35-23.36 4.4-32.07 12.04-9.79-8-22.4-12.04-37.56-12.04h-.24c-16.85.47-30.63 7.82-39.86 21.27C.17 44.3-1 75.61.5 98.27c1.73 25.96 7.8 55.2 16.68 80.25a12.7 12.7 0 0010.71 8.35c1.14.11 2.36.17 3.61.17 8.78 0 21.95-2.84 30.18-10.82a12.53 12.53 0 003.2-12.88C48.92 113.2 43.6 70.19 51.98 58.76c1.04-1.43 2.28-2.37 4.99-2.37 3.51 0 5.99 1.17 8.03 3.8 9.45 12.15 6.87 48.17-.57 77.48-.97 3.8-.14 7.77 2.27 10.87a12.57 12.57 0 009.99 4.88h29.98a12.6 12.6 0 009.88-4.75c2.41-3 3.31-6.89 2.47-10.64-5.46-24.4-8.6-64.44 1.5-77.05a8.48 8.48 0 017.27-3.46c2.49 0 4.07.77 5.47 2.66 10.65 14.4.74 68.85-9.7 102.92a12.77 12.77 0 001.9 11.21c6.67 9.14 18.43 14.17 33.1 14.17.94 0 1.89-.02 2.85-.06a12.63 12.63 0 0011.92-10.15c.91-4.59 1.8-9.17 2.66-13.74a185.68 185.68 0 006.11 17.05 13.16 13.16 0 0013.94 8c8.78-1.17 18.34-3.66 25.57-6.68a13.26 13.26 0 006.07-5.14 27.84 27.84 0 0046.98-5.58c.72 2.35 1.46 4.66 2.25 6.88 1.62 4.58 5.6 8 10.41 8.92a86.3 86.3 0 0016.12 1.4c23.15 0 49.74-7.28 63.53-11.62l.5-.19 1.04 3.23a11.82 11.82 0 0010.2 8.03c1.03.1 2.15.14 3.32.14 9.18 0 22.1-2.66 30.82-10.12.2-.16.39-.33.57-.5 6.71 4.18 14.87 7 24.35 8.38A11.74 11.74 0 00451 177.6c2.42-10.94 4.77-21.92 6.83-32.76a291.77 291.77 0 008.4 32.26c2 6.14 7.7 10.28 14.19 10.3h.16c10.53 0 20.05-3.26 27.49-9.3 9.8 10 25.62 11.6 30.35 11.86.27.02.54.02.81.02a15 15 0 0014.61-11.75c1.88-8.73 3.73-17.6 5.44-26.5a309.86 309.86 0 007.64 29.85c1.6 5.15 6.5 8.61 12.19 8.62.23 0 .46 0 .7-.02 12.88-.63 25.58-5.9 33.98-14.1a12.55 12.55 0 003.36-12.87c-4.3-13.3-6.3-23.3-7.24-29.77C644.77 128.1 680 106.92 680 62.06zm-461.77 44.56l.05-.1c1.42 3.32 3 10.6 3.12 22.1a13.25 13.25 0 008.28 12.07 27.93 27.93 0 00-6.59 10.56c-6.16-18.56-8.44-37.14-4.86-44.63zm190.9 33.11a418.01 418.01 0 01-6.86-31.53c-6.04-34.96-1.45-45.7.8-48.7.93-1.23 1.98-2 4.31-2h.22c2.53.06 4.15.86 5.57 2.8 7.21 9.8 5.52 39.97-4.03 79.43zm101.88-2.52c-5.69-24.19-13.76-64.78-4.7-76.39 1-1.29 2.22-2.14 4.86-2.14h.19c2.7.04 3.94.98 4.98 2.37 8.33 11.23 1.98 46.75-5.33 76.16zm95.6-53.86c.29-12.33 2.4-21.68 3.97-27.04 16.8.44 19.38 7.04 19.38 11.02 0 9.19-12.96 13.8-23.35 16.02z" fill="#2b354a"/>
  <path d="M249.43 141.35a19 19 0 100 38 19 19 0 000-38zm-14.67-8.6a54.62 54.62 0 0021.65-5.54 4.35 4.35 0 002.46-4.06c-1.44-38.03-11.12-59.73-42.86-55.62-40.1 5.18-45.71 56.38-25.7 110.63a4.23 4.23 0 004.55 2.6c6.71-.9 15.87-2.96 23.32-6.07a4.3 4.3 0 002.27-5.74c-13.03-28.91-19.36-68.31-3.04-72.6 11.34-1.9 12.77 22.24 12.89 32.16a4.3 4.3 0 004.46 4.25zM124.26 11.34c-12.62.35-22.28 5.05-29.5 12.8a3.7 3.7 0 01-5.3.08c-8.07-8.1-19.42-12.88-35.07-12.88-61.21 1.69-49.6 105.63-28.84 164.22a3.75 3.75 0 003.19 2.47c7.38.71 19.93-1.58 26.74-8.19a3.71 3.71 0 00.93-3.8c-5.1-16.02-36.47-118.53.55-118.53 31.71 0 23.85 61.72 16.08 92.36a3.75 3.75 0 003.64 4.66h29.98c2.4 0 4.2-2.21 3.67-4.56-4.85-21.68-14.85-91.33 17.45-91.33 37.27 0 8.73 102.53 4.28 117.07a3.82 3.82 0 00.58 3.37c5.35 7.33 15.34 11 28.4 10.46a3.77 3.77 0 003.56-3.01c12.65-63.23 30.47-165.2-40.34-165.2zm384.31 1.1c-60.61.72-53.15 102.71-33.87 161.91a6.04 6.04 0 005.76 4.17c7.47.02 18.32-2 26.28-11.52a4.98 4.98 0 001.21-4.64c-3.54-17.42-32.9-113.14 3.55-112.57 36.28.57 6.03 97.75 1.03 115.89a5.96 5.96 0 001.29 5.56c5.94 6.63 16.87 9.4 25.09 9.85a6.02 6.02 0 006.25-4.72c13.62-63.14 33.52-162.83-36.59-163.93zM358.91 141.3a4.92 4.92 0 00-6.2-3.9c-8.71 2.48-21.95 5.63-33.22 5.54a4.87 4.87 0 01-4.63-3.55c-11.3-40.32-.38-81.8 13.38-117.79a4.9 4.9 0 00-3.23-6.45A255.4 255.4 0 00299.44 9a4.9 4.9 0 00-5.27 2.6c-25.12 50.44-24.3 121.05-8.9 164.48a4.9 4.9 0 003.72 3.16c25.16 4.82 58.9-4.89 72.25-9.1a4.93 4.93 0 003.2-6.22 174.41 174.41 0 01-5.53-22.63zM603.5 125.3c13.9-1.48 67.62-10.61 67.62-63.26 0-55.34-79.4-46.77-92.84-44.92a3.44 3.44 0 00-2.71 2.08c-4.63 11.09-27.18 72.48-.13 159.73.52 1.67 2.2 2.44 3.95 2.36 10.2-.5 21.06-4.61 28.2-11.6 1.03-1 1.56-2.4 1.12-3.76-6.01-18.6-7.75-31.24-8.25-36.93a3.41 3.41 0 013.04-3.7zM597.9 93.8c-1.63-28.51 6.3-46.23 6.3-46.23s34.65-3.4 34.65 19.77S600.1 93.3 597.9 93.79zM405.96 12.4c-61.37.42-48.65 106.66-29.02 165.6a2.92 2.92 0 002.54 1.98c6.48.57 19.68-1.12 27.59-7.88a2.96 2.96 0 00.95-3.04c-4.15-14.89-37.38-121.21-.24-120.44 37.13.77 8.28 100.9 4.15 115.18-.32 1.1.04 2.25.88 3.02 8.3 7.51 19.27 10.1 26.24 11.12a2.92 2.92 0 003.28-2.26c13.93-62.81 34.5-161.81-36.37-163.28z" fill="#fcf5eb"/>
  <g clip-path="url(#a)">
    <path d="M254.4 144.84a19 19 0 100 38 19 19 0 000-38zm-14.68-8.6a54.62 54.62 0 0021.66-5.54 4.35 4.35 0 002.46-4.06c-1.44-38.03-11.12-59.73-42.86-55.62-40.1 5.18-45.71 56.38-25.71 110.63a4.23 4.23 0 004.56 2.6c6.71-.9 15.86-2.96 23.32-6.07a4.3 4.3 0 002.26-5.74c-13.02-28.91-19.35-68.31-3.03-72.6 11.33-1.9 12.77 22.24 12.88 32.16a4.3 4.3 0 004.46 4.25zM129.23 14.83c-12.63.35-22.29 5.05-29.5 12.8a3.7 3.7 0 01-5.3.08C86.36 19.6 75 14.82 59.36 14.82-1.86 16.5 9.76 120.45 30.52 179.04a3.75 3.75 0 003.18 2.47c7.39.71 19.93-1.58 26.75-8.19a3.71 3.71 0 00.92-3.8c-5.1-16.02-36.47-118.54.56-118.54 31.7 0 23.85 61.73 16.08 92.37a3.75 3.75 0 003.64 4.66h29.98c2.4 0 4.2-2.21 3.67-4.56-4.85-21.68-14.86-91.33 17.44-91.33 37.27 0 8.74 102.53 4.28 117.07a3.82 3.82 0 00.58 3.37c5.35 7.33 15.35 11 28.4 10.46a3.77 3.77 0 003.57-3.01c12.65-63.23 30.47-165.2-40.34-165.2zM608.46 128.8c13.9-1.48 67.62-10.61 67.62-63.26 0-55.34-79.4-46.77-92.85-44.92a3.44 3.44 0 00-2.7 2.08c-4.63 11.09-27.18 72.48-.13 159.73.51 1.67 2.2 2.44 3.95 2.35 10.2-.5 21.06-4.6 28.2-11.58 1.03-1 1.56-2.4 1.12-3.77-6.01-18.6-7.75-31.24-8.25-36.93a3.41 3.41 0 013.04-3.7zm-5.59-31.52c-1.63-28.51 6.3-46.23 6.3-46.23s34.65-3.4 34.65 19.77-38.75 25.97-40.95 26.46zm-89.33-81.36c-60.62.72-53.16 102.71-33.87 161.91a6.04 6.04 0 005.75 4.17c7.48.02 18.33-2 26.29-11.52a4.98 4.98 0 001.21-4.64c-3.54-17.42-32.9-113.14 3.55-112.57 36.27.57 6.03 97.75 1.03 115.89a5.96 5.96 0 001.29 5.56c5.94 6.63 16.86 9.4 25.08 9.85a6.02 6.02 0 006.26-4.72c13.61-63.14 33.52-162.83-36.59-163.93zm-102.61-.04c-61.38.42-48.65 106.66-29.02 165.6a2.92 2.92 0 002.53 1.98c6.49.57 19.68-1.12 27.6-7.88a2.96 2.96 0 00.94-3.04c-4.14-14.89-37.37-121.21-.23-120.44 37.13.77 8.28 100.9 4.15 115.18-.32 1.1.04 2.25.88 3.02 8.3 7.51 19.27 10.1 26.23 11.12a2.92 2.92 0 003.29-2.26c13.93-62.81 34.5-161.81-36.37-163.28zm-47.05 128.9a4.92 4.92 0 00-6.2-3.9c-8.72 2.5-21.95 5.64-33.22 5.55a4.87 4.87 0 01-4.63-3.55c-11.3-40.32-.39-81.8 13.37-117.79a4.9 4.9 0 00-3.22-6.45 255.4 255.4 0 00-25.57-6.14 4.9 4.9 0 00-5.27 2.6c-25.12 50.44-24.3 121.05-8.9 164.48a4.9 4.9 0 003.72 3.16c25.16 4.82 58.9-4.89 72.25-9.1a4.93 4.93 0 003.19-6.22 174.41 174.41 0 01-5.52-22.63z" fill="#f79929"/>
  </g>
</svg>
