<svg width="82" height="24" viewBox="0 0 82 24" fill="none" xmlns="http://www.w3.org/2000/svg">
<mask id="mask0_340_3639" style="mask-type:luminance" maskUnits="userSpaceOnUse" x="17" y="4" width="3" height="3">
<path d="M18.8238 4.66418C17.1463 4.98365 18.0996 7.52733 19.5778 6.28032C20.3303 5.64541 20.0092 4.63867 19.0898 4.63867C19.0063 4.63867 18.9186 4.64673 18.8238 4.66418Z" fill="white"/>
</mask>
<g mask="url(#mask0_340_3639)">
<path d="M20.3289 4.63867H17.1449V7.52733H20.3289V4.63867Z" fill="url(#paint0_linear_340_3639)"/>
</g>
<mask id="mask1_340_3639" style="mask-type:luminance" maskUnits="userSpaceOnUse" x="15" y="1" width="67" height="23">
<path d="M18.5734 22.5881C18.5734 22.5881 18.6837 21.7639 18.9468 21.2565C19.5692 20.0471 21.4702 18.6551 22.6428 17.8685L24.6698 16.6698C24.3133 18.4215 21.6301 23.7277 19.2495 23.3143C18.8223 23.2391 18.7615 23.019 18.6667 22.8713C18.654 22.8512 18.5465 22.6686 18.5734 22.5894M78.0847 7.97031C78.6165 8.44683 78.0847 9.14751 77.7169 9.59719C77.1455 10.2979 76.2289 10.7838 75.3929 11.1784C75.3774 10.4267 77.0648 7.38774 78.0847 7.97031ZM54.1729 1.66682C53.9325 1.89233 53.5492 3.55679 53.3384 3.60243C52.2733 3.59438 51.1714 3.67626 50.0639 3.76082C48.5433 3.87492 47.0129 3.99036 45.5602 3.86553C44.5842 3.78096 44.6167 3.24806 44.43 3.20645C43.8586 3.0749 43.901 4.03466 44.5927 4.36621C45.8049 4.94474 48.6791 4.43869 50.095 4.37695C50.4387 4.36352 50.7867 4.37292 51.1332 4.38231C51.8136 4.40111 52.4925 4.4199 53.1474 4.25211C51.9522 6.85217 51.9069 10.1301 50.4797 12.5744C50.1587 13.1234 48.8517 15.2228 47.9987 14.6993C46.7498 13.9329 48.5674 11.0965 48.4726 10.2012C48.4118 9.62806 47.1614 9.38376 46.7639 9.79853C46.5673 10.0066 46.3594 10.8536 46.1656 11.2066C45.7554 11.9543 44.4456 14.0711 43.7355 14.4523C42.3918 15.1785 42.7029 13.408 42.8741 12.7463C43.2334 11.3677 44.2829 9.64148 45.4951 8.75959C46.382 8.11528 47.7144 7.65487 47.9224 9.071L48.4726 9.08845C48.5942 8.15421 47.9761 7.30721 46.9506 7.15687C45.0877 6.88438 42.9123 8.92201 42.0749 10.3059C41.5346 11.1972 39.8712 15.247 38.6208 15.2322C38.1483 15.1893 38.2473 14.5919 38.2742 14.2523C38.4114 12.5691 40.2318 8.95423 39.1003 7.47232C38.8358 7.12868 38.3718 6.9166 37.9163 6.92734C35.5924 6.98103 33.3929 12.0831 32.2514 13.6617L33.3221 8.89516C33.2387 8.38911 32.1821 8.3126 31.7549 8.49918C31.2245 8.73408 31.117 10.5126 30.8765 11.0872C30.2513 12.5785 28.4903 13.5637 27.1508 14.4456C27.1833 13.4483 28.8227 9.62806 27.1465 9.34886C25.8593 9.13544 26.0489 10.0079 25.6231 10.8133C25.2129 11.5892 23.4759 14.6107 22.3896 14.3839C21.258 14.1476 22.2963 11.765 22.6117 11.1731C23.1252 10.2079 24.9385 8.08038 26.1635 8.03206C26.7688 8.00924 26.9697 8.322 27.0871 8.82268C28.1225 8.85624 27.5779 7.73272 27.0107 7.38775C25.7448 6.61592 23.8211 7.55419 22.8281 8.36763C20.9596 9.90055 20.7078 12.1221 19.2056 13.7825C18.9114 14.106 17.777 15.2846 17.4757 14.3543C17.2409 13.6308 17.7968 11.9154 18.0542 11.1516C18.3089 10.3972 19.6554 8.30455 18.6908 7.87501C17.3343 7.27097 17.0104 8.73274 16.7006 9.64149C16.306 10.8026 15.4106 14.4215 16.5606 15.2336C17.4687 15.8738 18.5621 15.2792 19.2382 14.6617C19.5197 14.404 20.0642 13.463 20.142 13.4013C20.3881 13.2053 20.3768 13.4604 20.4362 13.5825C20.6767 14.0859 20.589 14.4617 21.2227 14.8174C23.0799 15.8631 24.5976 13.5396 25.4902 12.3892C25.5354 12.3301 25.7179 11.9771 25.807 12.1597L24.9654 15.6631C22.6174 17.1947 17.5832 19.7665 18.009 22.882C18.0797 23.3961 18.4998 23.7693 19.0317 23.8982C21.8224 24.5787 23.9965 21.686 25.0785 19.7196C25.6769 18.6323 26.3983 15.9235 26.9372 15.2926C27.3686 14.7866 28.7802 14.1369 29.4153 13.6577C29.8383 13.3395 30.1537 12.8872 30.6233 12.6161C30.7435 13.1704 30.1169 15.2577 30.7223 15.4658C31.0575 15.5799 31.4395 15.5987 31.745 15.4228C32.4664 15.008 34.1354 11.6724 34.7592 10.7435C35.2882 9.95693 37.9064 5.97966 37.7127 9.15557C37.6165 10.7462 36.1482 14.3127 37.2162 15.6175C38.4001 17.0658 40.6406 14.459 41.181 13.5302C41.9434 17.0604 45.1344 14.6832 45.928 12.6161C46.3339 12.2483 46.1967 13.6912 46.2207 13.8456C46.7384 17.0752 50.3652 14.8456 50.955 12.8778L51.2082 14.604C52.3369 17.2953 54.8646 14.7799 55.4191 13.1395C55.7996 13.2993 55.668 13.757 55.8604 14.1033C56.1079 14.5476 56.7487 14.8738 57.2933 14.8147C59.002 14.6268 60.0147 12.5865 60.8733 11.4402C60.7842 12.6442 60.3613 15.0349 61.9738 15.5221C63.3826 15.9463 64.2992 14.7248 64.9697 13.7825C66.1154 12.1731 66.8255 10.3502 67.5426 8.56093L68.7421 9.0455C68.7675 10.765 66.7222 14.8067 68.9684 15.8671C70.7747 16.7235 72.5555 14.0416 73.1298 12.7489L73.639 14.3033C75.5118 16.9987 78.5571 15.2564 80.1329 13.2617C80.3889 12.9382 81.6803 11.0442 81.4709 10.8026L81.0763 10.6643C80.3436 12.1543 78.1766 15.3772 76.062 14.9423C74.929 14.71 74.6532 12.4926 75.1426 11.863C75.2119 11.7758 76.8272 11.118 77.2219 10.8415C77.6575 10.5368 78.3888 9.83612 78.625 9.39182C79.7778 7.2307 77.6504 6.27631 75.7706 7.54211C73.8738 8.82133 73.2005 11.8563 71.8539 13.7315C71.4862 14.2429 70.1254 16.1732 69.5497 14.9356C68.9797 13.7114 70.9685 10.3771 70.7153 9.15691C70.5455 8.33408 68.561 8.12602 67.9471 7.6495C67.7236 7.32064 68.5794 5.86691 67.9698 5.41589C67.0772 4.75682 65.1875 6.66692 66.3898 7.92064C66.7434 8.28978 67.0093 7.96896 66.8297 8.69918C66.5157 9.97303 64.6712 13.8711 63.5382 14.5557C62.1322 15.404 62.1492 14.0993 62.2213 13.0765C62.3331 11.4617 63.0714 9.63209 63.6273 8.10186C63.4236 7.44144 62.2454 7.11123 61.8083 7.73004C61.1576 9.49115 60.2029 11.8429 58.8761 13.259C58.5805 13.5758 57.7445 14.3678 57.3371 13.7879C56.852 13.0993 57.5394 10.9838 57.7883 10.165C57.9623 9.59451 58.6554 8.24817 58.6738 7.83071C58.7092 7.11929 57.5875 6.99311 57.0698 7.28037C56.7897 7.43607 56.2961 9.03342 56.1659 9.45222C55.9297 10.2106 55.8378 11.0375 55.5634 11.7717C55.3427 12.3677 53.6524 15.404 52.8674 15.0429C52.2733 14.1704 52.6297 12.6966 52.791 11.6979C53.2012 9.17034 54.1871 6.65082 55.1546 4.27224C57.4729 4.44003 60.4122 4.30312 62.6103 4.99844C63.0926 5.15012 63.6217 5.56086 63.9074 5.63469C64.4222 5.76892 64.4123 5.3018 64.1832 4.98501C63.3119 3.77559 57.1532 3.71385 55.5577 3.59707C55.5054 3.00511 56.3173 2.32858 55.8024 1.8024C55.6341 1.63058 55.1744 1.50977 54.7741 1.50977C54.5223 1.50977 54.2946 1.55675 54.1744 1.6695" fill="white"/>
</mask>
<g mask="url(#mask1_340_3639)">
<path d="M81.6774 1.50684H15.4077V24.5798H81.6774V1.50684Z" fill="url(#paint1_linear_340_3639)"/>
</g>
<mask id="mask2_340_3639" style="mask-type:luminance" maskUnits="userSpaceOnUse" x="0" y="0" width="16" height="20">
<path d="M11.9027 0.222828C9.32839 0.876533 5.2363 3.88331 5.85867 6.66726C6.52065 9.63645 14.2762 10.5291 12.4869 14.9131C11.2464 17.9521 5.79785 19.587 2.64356 18.638C1.56573 18.3131 0.70573 17.587 0.808986 16.4702C0.808986 16.4702 0.808986 16.4702 0.808986 16.4661V16.4621C0.824546 16.3748 0.980136 15.595 1.70011 14.7413C1.84297 14.5735 2.00846 14.4017 2.198 14.2325C2.68741 13.7936 3.34656 13.3694 4.23061 13.0379C4.54462 12.9211 4.88692 12.8164 5.25893 12.7251C5.35795 12.6875 5.43291 12.6499 5.46545 12.6164C5.88555 12.2003 4.99584 12.0956 4.61393 12.1519C1.6803 12.5895 -1.92378 16.5749 1.21211 18.7789C1.24748 18.8031 1.8656 19.1534 1.92642 19.1843C5.8516 21.183 14.3073 17.9856 14.0612 13.1399C13.8335 8.63643 2.88119 7.91024 9.00588 3.01483C10.0583 2.1732 13.5548 0.115445 14.8364 1.11412C15.5026 1.6336 14.9198 3.22557 14.5436 3.83633C14.3272 4.18667 13.0654 5.30885 13.586 5.64442C14.3611 6.14779 15.371 4.34372 15.5889 3.83498C16.6059 1.44433 15.6299 0 13.4898 0C13.0145 0 12.4827 0.0711431 11.9027 0.218797" fill="white"/>
</mask>
<g mask="url(#mask2_340_3639)">
<path d="M16.606 0.00390625H-1.92371V21.1842H16.606V0.00390625Z" fill="url(#paint2_linear_340_3639)"/>
</g>
<defs>
<linearGradient id="paint0_linear_340_3639" x1="18.3297" y1="22.2395" x2="18.3297" y2="-6.72555" gradientUnits="userSpaceOnUse">
<stop stop-color="#B58E5F"/>
<stop offset="0.28" stop-color="#8D6A43"/>
<stop offset="0.44" stop-color="#C69863"/>
<stop offset="0.56" stop-color="#EDB87A"/>
<stop offset="0.63" stop-color="#FCC583"/>
<stop offset="0.7" stop-color="#EAB678"/>
<stop offset="0.86" stop-color="#BD915E"/>
<stop offset="1" stop-color="#8D6A43"/>
</linearGradient>
<linearGradient id="paint1_linear_340_3639" x1="48.1396" y1="22.2392" x2="48.1396" y2="-6.72577" gradientUnits="userSpaceOnUse">
<stop stop-color="#B58E5F"/>
<stop offset="0.28" stop-color="#8D6A43"/>
<stop offset="0.44" stop-color="#C69863"/>
<stop offset="0.56" stop-color="#EDB87A"/>
<stop offset="0.63" stop-color="#FCC583"/>
<stop offset="0.7" stop-color="#EAB678"/>
<stop offset="0.86" stop-color="#BD915E"/>
<stop offset="1" stop-color="#8D6A43"/>
</linearGradient>
<linearGradient id="paint2_linear_340_3639" x1="6.95084" y1="22.2397" x2="6.95084" y2="-6.72531" gradientUnits="userSpaceOnUse">
<stop stop-color="#B58E5F"/>
<stop offset="0.28" stop-color="#8D6A43"/>
<stop offset="0.44" stop-color="#C69863"/>
<stop offset="0.56" stop-color="#EDB87A"/>
<stop offset="0.63" stop-color="#FCC583"/>
<stop offset="0.7" stop-color="#EAB678"/>
<stop offset="0.86" stop-color="#BD915E"/>
<stop offset="1" stop-color="#8D6A43"/>
</linearGradient>
</defs>
</svg>
